<svg id="visual" viewBox="0 0 960 540" width="960" height="540" xmlns="http://www.w3.org/2000/svg" xmlns:xlink="http://www.w3.org/1999/xlink" version="1.1"><rect x="0" y="0" width="960" height="540" fill="#004075"></rect><g transform="translate(472.06023311712147 259.2905650290815)"><path d="M81.9 -140.2C98.8 -132.1 100 -95.3 114.5 -67.1C128.9 -39 156.4 -19.5 163.5 4.1C170.6 27.7 157.2 55.3 136.9 73.4C116.7 91.4 89.6 99.8 65.6 114.3C41.7 128.8 20.8 149.4 -5.6 159.1C-32 168.8 -64 167.5 -86.1 151.9C-108.2 136.4 -120.3 106.4 -121.2 78.7C-122.1 51 -111.7 25.5 -118.8 -4.1C-126 -33.7 -150.7 -67.5 -149.5 -94.8C-148.4 -122.1 -121.5 -142.9 -92.2 -143.8C-63 -144.8 -31.5 -125.9 0.5 -126.8C32.5 -127.6 65 -148.2 81.9 -140.2" fill="#011627"></path></g></svg>